<svg width="161" height="18" viewBox="0 0 161 18" fill="none" xmlns="http://www.w3.org/2000/svg">
<path d="M0.234609 13.08C0.254609 13.78 0.294609 14.48 0.314609 15.18C0.334609 15.86 0.354609 16.52 0.394609 17.18C0.414609 17.54 0.674609 17.72 1.01461 17.62C1.25461 17.54 1.47461 17.52 1.71461 17.52C2.39461 17.54 3.05461 17.46 3.71461 17.6C3.79461 17.6 3.87461 17.6 3.93461 17.58C4.35461 17.52 4.79461 17.54 5.21461 17.54C5.49461 17.52 5.75461 17.48 6.03461 17.42C6.45461 17.3 6.89461 17.2 7.31461 17.08C7.71461 16.98 8.09461 16.84 8.45461 16.64C9.27461 16.16 10.0146 15.56 10.6146 14.84C11.1346 14.22 11.5546 13.56 11.9346 12.86C12.2346 12.32 12.3946 11.76 12.4146 11.16C12.4346 10.96 12.4146 10.76 12.4546 10.56C12.6146 9.44 12.4946 8.34 12.3746 7.24C12.3546 7.04 12.2946 6.84 12.2146 6.64C12.0546 6.2 11.8746 5.74 11.6946 5.3C11.6346 5.18 11.5946 5.06 11.5146 4.96C10.8746 4 10.1546 3.12 9.15461 2.48C8.91461 2.32 8.65461 2.16 8.37461 2.08C7.69461 1.86 7.03461 1.54 6.31461 1.4C5.69461 1.28 5.07461 1.08 4.41461 1.04C3.59461 0.999999 2.79461 0.979999 1.97461 1.08C1.61461 1.14 1.25461 1.2 0.874609 1.18C0.574609 1.16 0.514609 1.28 0.434609 1.5C0.374609 1.64 0.334609 1.82 0.314609 1.98C0.274609 2.36 0.234609 2.76 0.214609 3.14C0.194609 4.68 0.194609 6.22 0.194609 7.76C0.174609 8.18 0.254609 8.6 0.254609 9.02C0.274609 9.64 0.274609 10.24 0.214609 10.74C0.214609 11.6 0.194609 12.34 0.234609 13.08ZM4.51461 5.82C4.51461 5.38 4.49461 4.96 4.49461 4.54C4.49461 4.34 4.55461 4.3 4.73461 4.34C5.83461 4.52 6.71461 5.06 7.43461 5.88C7.73461 6.22 7.87461 6.64 8.05461 7.04C8.39461 7.8 8.51461 8.6 8.51461 9.42C8.51461 10.48 8.19461 11.44 7.79461 12.38C7.51461 13.04 7.01461 13.54 6.31461 13.8C5.91461 13.96 5.49461 14.16 5.05461 14.2C4.95461 14.22 4.87461 14.24 4.77461 14.24C4.45461 14.26 4.39461 14.2 4.39461 13.88C4.41461 12.78 4.39461 11.68 4.45461 10.6C4.47461 10.14 4.45461 9.7 4.45461 9.26C4.47461 8.1 4.49461 6.96 4.51461 5.82ZM14.0232 13.24C13.9632 14.46 14.0232 15.7 14.0232 16.92C14.0232 17 14.0432 17.08 14.0432 17.14C14.0632 17.24 14.1032 17.32 14.1832 17.38C14.4232 17.52 14.6432 17.74 14.9832 17.56C15.1032 17.5 15.2632 17.5 15.4032 17.5C16.0632 17.5 16.7232 17.44 17.3832 17.54C17.7632 17.62 17.9432 17.38 18.0232 17.1C18.0432 16.96 18.0432 16.8 18.0632 16.66C18.1432 15.58 18.0432 14.5 18.0832 13.42C18.1032 12.96 18.1032 12.5 18.1232 12.04C18.1232 11.96 18.1432 11.86 18.2032 11.78C18.2832 11.66 18.6632 11.74 18.7032 11.9C18.8232 12.34 19.0432 12.74 19.2032 13.16C19.5432 14.08 19.8632 15 20.2032 15.9C20.3832 16.34 20.5832 16.78 20.7432 17.22C20.8432 17.46 21.0032 17.58 21.2432 17.58C21.5432 17.58 21.8432 17.56 22.1232 17.52C22.7032 17.46 23.3032 17.44 23.8832 17.5C24.1432 17.52 24.3832 17.5 24.6432 17.5C24.8832 17.5 24.9832 17.36 24.9032 17.14C24.9032 17.08 24.8632 17.04 24.8432 16.98C24.4632 15.96 24.0632 14.92 23.7432 13.88C23.5632 13.24 23.3632 12.62 23.1032 12C23.0232 11.84 22.9832 11.66 22.9232 11.48C22.9032 11.42 22.9432 11.34 23.0032 11.3C23.0832 11.26 23.1832 11.22 23.2632 11.2C23.7632 10.98 24.1632 10.66 24.5232 10.26C25.3032 9.36 25.6632 8.3 25.8232 7.16C25.9632 6.18 25.8632 5.22 25.5632 4.28C25.3032 3.48 24.9432 2.72 24.3032 2.12C24.1632 2 24.0232 1.88 23.8632 1.8C23.3032 1.56 22.7032 1.3 22.1232 1.12C22.0832 1.1 22.0232 1.12 21.9632 1.12C21.1632 1.1 20.3632 0.999999 19.5632 0.939999C19.3632 0.919999 19.1432 0.919999 18.9632 0.939999C18.5432 0.979999 18.1232 1.02 17.6832 0.979999C16.6832 0.899999 15.6832 1.32 14.6632 1.32C14.5032 1.32 14.4032 1.42 14.3432 1.56C14.2632 1.76 14.2032 1.98 14.1832 2.2C14.1432 2.76 14.0832 3.32 14.0832 3.9C14.1032 4.5 14.0832 5.1 14.0832 5.72C14.0632 6.72 14.0232 7.72 14.1032 8.74C14.1232 9.16 14.1032 9.58 14.1032 10C14.0032 11.08 14.0632 12.16 14.0232 13.24ZM18.0432 4.48C18.0632 4.22 18.1232 4.16 18.3832 4.16C19.0432 4.14 19.7032 4.18 20.3432 4.34C21.4032 4.64 21.7832 5.32 21.8232 6.32C21.8232 6.54 21.7832 6.76 21.7432 6.98C21.6032 7.7 21.1432 8.14 20.4832 8.38C20.0632 8.54 18.8232 8.66 18.3632 8.6C18.1232 8.56 18.1232 8.54 18.1032 8.26C18.0632 7.64 18.0432 7.02 18.0032 6.4C17.9832 5.76 18.0432 5.12 18.0432 4.48ZM40.267 16.7C40.127 16.16 39.947 15.62 39.807 15.06C39.547 14.06 39.327 13.02 39.047 12.02C38.567 10.36 38.047 8.7 37.527 7.04C37.447 6.72 37.347 6.4 37.247 6.08C37.007 5.38 36.907 4.62 36.627 3.92C36.487 3.58 36.387 3.24 36.267 2.88C36.107 2.5 35.967 2.1 35.807 1.7C35.707 1.48 35.547 1.32 35.287 1.28C34.607 1.14 33.907 1.06 33.227 1.04C32.687 1.02 32.167 1.12 31.647 1.26C31.347 1.34 31.187 1.5 31.107 1.8C30.807 2.86 30.527 3.92 30.147 4.96C29.987 5.34 29.867 5.74 29.727 6.16C29.107 8.12 28.447 10.08 27.907 12.08C27.687 12.9 27.447 13.7 27.207 14.5C27.147 14.76 27.067 15 26.987 15.24C26.787 15.8 26.587 16.34 26.407 16.9C26.227 17.42 26.387 17.6 26.927 17.64C27.027 17.66 27.147 17.64 27.247 17.64C27.507 17.64 27.767 17.62 28.027 17.62C28.787 17.58 29.567 17.68 30.327 17.58C30.687 17.54 30.847 17.48 30.947 17.16C31.087 16.7 31.207 16.24 31.327 15.78C31.387 15.62 31.427 15.44 31.467 15.28C31.967 15.26 32.407 15.26 32.787 15.3C33.707 15.3 34.547 15.3 35.327 15.3C35.347 15.38 35.367 15.44 35.387 15.52C35.547 16.04 35.687 16.58 35.827 17.1C35.887 17.38 36.047 17.5 36.307 17.52C36.527 17.54 36.747 17.54 36.967 17.5C37.827 17.38 38.687 17.36 39.527 17.5C39.707 17.54 39.867 17.52 40.027 17.48C40.207 17.42 40.327 17.32 40.327 17.14C40.327 16.98 40.307 16.84 40.267 16.7ZM34.027 11.92C33.467 11.96 32.927 11.96 32.387 11.94C32.587 11.1 32.807 10.26 33.007 9.4C33.087 9.08 33.167 8.78 33.267 8.46C33.307 8.28 33.327 8.1 33.507 7.9C33.627 8.26 33.727 8.58 33.827 8.9C34.087 9.88 34.427 10.86 34.587 11.86C34.587 11.88 34.587 11.88 34.587 11.88C34.407 11.9 34.207 11.9 34.027 11.92ZM52.8396 8.6C52.8396 7.8 52.4796 7.64 51.8996 7.6C51.2196 7.54 50.5396 7.58 49.8596 7.62C49.4396 7.66 49.0196 7.68 48.5996 7.74C48.1596 7.8 48.0196 7.98 47.9796 8.44C47.9796 8.46 47.9796 8.48 47.9996 8.48C48.0196 9.2 48.0396 9.92 48.0796 10.62C48.0796 10.72 48.0996 10.82 48.0996 10.9C48.1596 11.16 48.2596 11.24 48.5196 11.24C48.7996 11.24 49.0596 11.24 49.3396 11.24C49.4196 11.24 49.4796 11.28 49.4796 11.36C49.4196 12.26 48.8996 13.16 47.9396 13.24C46.8996 13.32 45.9796 12.6 45.6196 11.4C45.2796 10.28 45.3196 8.76 45.5796 7.64C45.7596 6.9 46.1596 6.32 46.7996 5.92C47.2196 5.66 47.6796 5.42 48.1796 5.28C49.0396 5 49.9196 5.06 50.7996 5.14C50.8796 5.14 50.9796 5.18 51.0596 5.22C51.3996 5.36 51.7396 5.48 52.0396 5.72C52.1596 5.82 52.2796 5.76 52.3396 5.6C52.3596 5.5 52.3796 5.4 52.3796 5.28C52.4196 4.94 52.4396 4.6 52.4396 4.24C52.4396 3.76 52.3996 3.26 52.3796 2.76C52.3596 2.42 52.1996 2.12 51.9396 1.9C51.2996 1.38 50.5796 1.06 49.7396 1.06C48.9396 1.06 48.1596 1.08 47.3796 1.16C46.7396 1.24 46.0996 1.36 45.5196 1.64C45.1796 1.82 44.8396 2.02 44.4996 2.18C43.9796 2.44 43.5396 2.8 43.1396 3.2C42.7396 3.62 42.4196 4.08 42.1396 4.58C41.5996 5.52 41.2196 6.52 41.0196 7.6C40.8396 8.6 40.7596 10 40.8396 11C40.8996 11.58 40.9796 12.18 41.1996 12.72C41.3996 13.2 41.6196 13.66 41.8596 14.1C42.2396 14.8 42.6996 15.44 43.3196 15.94C43.8796 16.38 44.4396 16.76 45.0596 17.12C45.2596 17.24 45.4796 17.32 45.7196 17.36C46.0996 17.42 46.4796 17.48 46.8596 17.52C47.8996 17.58 48.9596 17.58 49.9596 17.28C50.3796 17.14 50.7996 17.02 51.1396 16.72C51.3196 16.56 51.4996 16.44 51.6596 16.3C51.9996 15.96 52.3396 15.62 52.4796 15.14C52.5796 14.72 52.6996 14.3 52.7596 13.86C52.9196 12.8 52.9396 11.74 52.9196 10.62C52.8596 9.98 52.8396 9.28 52.8396 8.6ZM61.7934 1.14C60.8934 1.2 59.9734 1.28 59.1334 1.68C58.7534 1.86 58.3934 2.06 58.0134 2.26C57.1334 2.7 56.4734 3.38 55.9534 4.2C54.8734 5.84 54.3934 7.64 54.4134 9.6C54.4134 10.06 54.4134 10.92 54.4934 11.36C54.5534 11.9 54.6134 12.42 54.8534 12.92C54.9734 13.16 55.0934 13.4 55.1934 13.66C55.5934 14.5 56.0934 15.26 56.7934 15.88C57.0534 16.1 57.3334 16.3 57.6134 16.5C58.3134 17.02 59.0334 17.48 59.9534 17.48C59.9734 17.48 59.9934 17.5 60.0134 17.5C61.0534 17.64 62.1134 17.7 63.1534 17.4C63.2334 17.38 63.2934 17.36 63.3734 17.36C63.7534 17.34 64.0934 17.18 64.3934 17C64.7134 16.8 65.0334 16.64 65.3534 16.46C65.9134 16.2 66.4734 15.9 66.8734 15.4C67.0734 15.14 67.3134 14.9 67.5334 14.66C67.8534 14.26 68.1534 13.86 68.3734 13.38C68.7134 12.68 68.8734 11.94 69.0734 11.2C69.2934 10.4 69.3934 9.22 69.3334 8.4C69.3134 8.02 69.2734 7.64 69.2334 7.26C69.1134 6.46 68.9734 5.66 68.5534 4.94C68.4534 4.78 68.3934 4.58 68.2734 4.42C67.9734 3.94 67.6934 3.46 67.2734 3.06C66.8934 2.7 66.4734 2.42 66.0734 2.08C65.4334 1.56 64.6934 1.28 63.8934 1.16C63.4134 1.1 62.9334 1.12 62.4534 1.14C62.2334 1.14 62.0134 1.14 61.7934 1.14ZM64.3334 11.96C64.0134 12.36 63.6134 12.62 63.1134 12.76C62.6934 12.88 62.2734 13.06 61.8334 13C61.6934 12.98 61.5334 12.96 61.3934 12.92C60.8534 12.72 60.3534 12.46 59.9734 12.04C59.5934 11.64 59.3334 11.16 59.1934 10.66C58.9534 9.84 58.8934 8.6 59.1134 7.76C59.2934 7.04 59.6534 6.44 60.2734 6.02C60.5934 5.82 60.9134 5.64 61.2334 5.5C61.9134 5.22 62.5934 5.26 63.2934 5.44C63.5134 5.5 63.7134 5.64 63.8734 5.82C64.2934 6.26 64.6734 6.74 64.9534 7.26C65.1534 7.62 65.1934 8 65.2534 8.38C65.2734 8.54 65.2734 8.7 65.2734 8.86C65.2934 9.88 64.9334 11.16 64.3334 11.96ZM75.4587 9.86C75.9187 10.68 76.4587 11.46 77.0187 12.24C77.1987 12.5 77.3787 12.74 77.5587 13C78.5187 14.48 79.4987 15.94 80.5187 17.38C80.6587 17.6 80.8387 17.68 81.0987 17.68C81.4587 17.7 81.7987 17.7 82.1387 17.76C82.6587 17.84 83.1587 17.84 83.6787 17.82C83.8987 17.8 84.1187 17.76 84.3187 17.72C84.4587 17.7 84.5587 17.6 84.5787 17.46C84.5987 17.34 84.5787 17.24 84.5987 17.12C84.6587 16.54 84.6387 15.96 84.6587 15.38C84.7187 13.48 84.6987 11.6 84.6587 9.72C84.6387 7.74 84.5787 5.76 84.5387 3.78C84.5187 3.22 84.5187 2.48 84.4587 1.92C84.3987 1.3 84.3587 1.36 83.7387 1.26C83.6587 1.24 83.5587 1.26 83.4587 1.28C83.2787 1.32 83.0987 1.3 82.9187 1.3C82.3387 1.26 81.7587 1.24 81.1587 1.16C80.8587 1.12 80.6387 1.32 80.5987 1.62C80.5787 1.78 80.5787 1.94 80.5787 2.12C80.5387 3.12 80.5587 4.32 80.4987 5.34C80.4187 6.46 80.4187 7.6 80.4787 8.74C80.4987 8.96 80.4787 9.18 80.4787 9.4C80.4787 9.46 80.4587 9.52 80.3987 9.52C80.3587 9.52 80.2987 9.48 80.2787 9.44C80.1587 9.28 80.0587 9.1 79.9387 8.94C79.6387 8.44 79.3187 7.94 78.9987 7.46C78.2387 6.34 77.4987 5.24 76.8587 4.06C76.4187 3.28 75.9187 2.52 75.4387 1.78C75.2387 1.44 74.9587 1.3 74.5987 1.24C74.5187 1.22 74.4187 1.22 74.3387 1.2C73.6987 1.12 73.0587 1.16 72.4187 1.26C72.1987 1.3 71.9787 1.32 71.7587 1.32C71.1787 1.34 71.1187 1.38 70.9987 1.96C70.9987 2.02 70.9787 2.1 70.9787 2.18C70.9387 2.72 70.8587 3.26 70.8787 3.82C70.8987 4.46 70.8587 5.1 70.8587 5.74C70.8587 6.62 70.8387 7.5 70.8787 8.38C70.9187 9.12 70.9387 9.88 70.8987 10.62C70.8587 11.44 70.8187 12.24 70.8787 13.04C70.9387 13.8 70.9587 14.54 70.9787 15.3C70.9987 15.92 71.0187 16.54 71.0587 17.16C71.0787 17.48 71.2587 17.62 71.5587 17.62C71.6587 17.62 71.7787 17.62 71.8787 17.6C72.6387 17.54 73.3787 17.44 74.1387 17.54C74.2787 17.56 74.4187 17.5 74.5787 17.48C74.7387 17.46 74.8187 17.36 74.8587 17.2C74.9387 16.94 74.9587 16.66 74.9587 16.38C74.9787 14.84 74.9987 13.32 75.0187 11.78C75.0387 11.26 75.0387 10.74 75.0587 10.24C75.0787 9.98 75.0587 9.72 75.1387 9.46C75.3187 9.56 75.3787 9.72 75.4587 9.86ZM86.3316 16.88C86.3316 17.42 86.4516 17.72 87.1516 17.64C87.8516 17.56 88.5716 17.48 89.2916 17.54C89.5116 17.56 89.7116 17.48 89.9316 17.42C90.0516 17.38 90.1116 17.28 90.1516 17.18C90.1916 17.06 90.2116 16.94 90.2316 16.8C90.2716 16.4 90.2916 16 90.3116 15.6C90.3116 14.5 90.3116 13.4 90.3116 12.3C90.3116 12.14 90.3116 11.98 90.3316 11.82C90.3516 11.5 90.3916 11.46 90.6916 11.46C90.8716 11.46 91.0516 11.48 91.2316 11.48C92.1916 11.46 93.1516 11.44 94.0916 11.4C94.4516 11.38 94.8116 11.32 95.1916 11.26C95.4116 11.22 95.5116 11.12 95.5316 10.9C95.5316 10.84 95.5316 10.76 95.5316 10.68C95.5316 10.28 95.5116 9.88 95.5116 9.48C95.5116 9.04 95.4916 8.6 95.4716 8.16C95.4516 7.84 95.3516 7.74 95.0516 7.68C95.0116 7.68 94.9716 7.68 94.9516 7.68C94.4516 7.66 93.9516 7.66 93.4516 7.64C93.0316 7.64 92.6116 7.68 92.1916 7.66C91.7116 7.64 91.2116 7.62 90.7116 7.7C90.4716 7.74 90.4316 7.68 90.4116 7.44C90.4116 6.7 90.4116 6.2 90.4116 5.46C90.4116 5.02 90.4116 5.02 90.8716 5C90.9916 4.98 91.1316 4.96 91.2516 4.96C91.8516 4.92 92.4716 4.88 93.0716 4.96C93.4316 5 93.7916 5.02 94.1516 5C94.6516 4.96 95.1316 4.96 95.6316 5C96.3716 5.08 96.5716 4.84 96.5716 4.2C96.5716 3.56 96.5716 2.66 96.5516 2.02C96.5316 1.86 96.5116 1.68 96.4516 1.54C96.3516 1.24 96.1716 1.12 95.8716 1.16C95.1116 1.24 94.3316 1.22 93.5716 1.24C93.0516 1.26 92.5316 1.28 92.0316 1.22C90.8516 1.06 89.6916 1.2 88.5116 1.2C88.4516 1.2 88.3716 1.22 88.2916 1.22C87.7916 1.28 87.2916 1.4 86.7716 1.36C86.5916 1.34 86.4916 1.44 86.4316 1.58C86.3516 1.78 86.3116 1.96 86.2916 2.16C86.2516 2.6 86.2116 3.32 86.2116 3.76C86.1916 4.58 86.1716 5.22 86.1716 6.04C86.1516 6.78 86.1116 7.42 86.1716 8.16C86.2316 9.08 86.2116 10.02 86.1916 10.96C86.1716 11.6 86.1916 12.24 86.1916 13.02C86.2716 14.2 86.3316 15.54 86.3316 16.88ZM102.406 2.84C102.406 2.54 102.386 2.24 102.386 1.96C102.386 1.8 102.366 1.62 102.286 1.48C102.226 1.36 102.126 1.26 101.986 1.26C101.746 1.24 101.506 1.22 101.286 1.22C100.526 1.26 99.7857 1.24 99.0257 1.14C98.9457 1.14 98.8457 1.12 98.7657 1.12C98.4857 1.12 98.3057 1.3 98.2657 1.54C98.2457 1.72 98.2457 1.92 98.2457 2.1C98.2057 3.14 98.2057 4.18 98.1257 5.22C98.0457 6.26 98.0657 7.28 98.1057 8.3C98.1257 8.84 98.1657 9.4 98.1057 9.94C98.0657 10.54 98.0457 11.16 98.0657 11.76C98.0657 12.98 98.0657 14.2 98.1057 15.44C98.1057 15.86 98.1457 16.28 98.1857 16.7C98.2057 16.86 98.2657 17.02 98.3257 17.18C98.3857 17.34 98.5057 17.44 98.6857 17.42C99.0857 17.4 99.4657 17.46 99.8457 17.52C100.266 17.6 100.686 17.62 101.106 17.6C101.986 17.6 102.886 17.56 103.786 17.54C105.206 17.52 106.606 17.52 108.026 17.5C108.186 17.5 108.346 17.5 108.506 17.48C108.806 17.44 109.006 17.24 109.066 16.94C109.106 16.78 109.106 16.62 109.126 16.46C109.186 15.82 109.146 15.18 109.126 14.54C109.106 13.72 108.986 13.62 108.186 13.68C107.726 13.72 107.266 13.76 106.806 13.74C105.466 13.68 104.126 13.64 102.806 13.66C102.706 13.66 102.606 13.66 102.526 13.64C102.386 13.64 102.326 13.56 102.326 13.44C102.326 13.32 102.346 13.22 102.346 13.1C102.326 11.96 102.326 10.84 102.326 9.7C102.306 9.04 102.246 8.38 102.346 7.7C102.306 6.1 102.406 4.46 102.406 2.84ZM114.316 5.06C113.616 3.9 112.896 2.76 112.236 1.58C111.996 1.16 111.676 1.02 111.236 1.02C111.136 1.02 111.036 1.04 110.916 1.06C110.036 1.2 109.176 1.22 108.296 1.08C108.136 1.04 107.976 1.06 107.816 1.1C107.676 1.12 107.636 1.22 107.616 1.34C107.576 1.56 107.656 1.76 107.776 1.96C107.916 2.18 108.056 2.38 108.176 2.62C108.436 3.12 108.696 3.62 108.976 4.1C109.476 4.96 109.996 5.82 110.476 6.68C110.976 7.58 111.556 8.46 112.136 9.32C112.276 9.56 112.356 9.76 112.376 10.04C112.416 11.18 112.416 12.3 112.436 13.44C112.436 14.6 112.416 15.74 112.516 16.9C112.536 17.08 112.536 17.26 112.616 17.44C112.656 17.52 112.716 17.6 112.816 17.6C113.076 17.64 113.316 17.68 113.576 17.68C114.136 17.68 114.716 17.66 115.276 17.64C115.716 17.62 116.156 17.56 116.596 17.52C116.976 17.46 116.996 17.44 117.036 17.1C117.096 16.68 117.136 16.26 117.136 15.84C117.136 13.82 117.156 11.8 117.156 9.78C117.136 9.4 117.236 9.08 117.436 8.76C118.136 7.72 118.816 6.68 119.436 5.6C119.736 5.06 120.036 4.52 120.376 3.98C120.756 3.32 121.176 2.68 121.576 2.02C121.696 1.82 121.816 1.64 121.856 1.42C121.896 1.24 121.836 1.14 121.656 1.1C121.516 1.06 121.376 1.04 121.236 1.06C120.516 1.18 119.816 1.22 119.096 1.12C118.876 1.08 118.656 1.06 118.436 1.04C117.876 0.999999 117.416 1.12 117.096 1.66C116.356 2.9 115.576 4.12 114.796 5.34C114.756 5.4 114.716 5.44 114.676 5.5C114.476 5.4 114.416 5.22 114.316 5.06ZM128.059 1.06C127.879 1.06 127.599 1.14 127.419 1.18C127.199 1.24 126.959 1.3 126.739 1.34C126.159 1.48 125.599 1.66 125.159 2.08C125.059 2.18 124.939 2.26 124.819 2.34C124.159 2.84 123.739 3.46 123.559 4.28C123.379 5.08 123.299 5.86 123.339 6.68C123.379 7.2 123.539 7.4 124.079 7.44C124.539 7.48 124.999 7.5 125.439 7.52C125.779 7.54 126.099 7.5 126.439 7.42C126.759 7.36 126.859 7.24 126.899 6.92C126.939 6.66 126.939 6.4 126.979 6.14C127.079 5.4 127.479 4.92 128.199 4.66C128.839 4.46 129.599 4.7 129.999 5.24C130.679 6.16 130.059 7.58 128.999 7.74C128.679 7.8 128.359 7.84 128.019 7.9C127.839 7.94 127.679 7.98 127.499 8.02C127.379 8.06 127.299 8.14 127.279 8.26C127.199 8.8 127.199 9.38 127.199 9.92C127.179 10.3 127.379 10.5 127.719 10.6C127.819 10.64 127.939 10.64 128.059 10.66C128.499 10.72 128.899 10.88 129.279 11.12C129.779 11.44 130.099 11.88 130.199 12.48C130.319 13.12 130.099 13.62 129.539 13.96C129.239 14.14 128.939 14.18 128.599 14.18C127.899 14.16 127.379 13.82 127.119 13.16C127.039 12.98 126.979 12.78 126.959 12.58C126.959 12.32 126.919 12.06 126.899 11.82C126.859 11.58 126.739 11.44 126.519 11.38C126.359 11.34 126.199 11.32 126.039 11.3C125.399 11.24 124.759 11.32 124.119 11.32C124.059 11.32 123.999 11.34 123.959 11.36C123.539 11.44 123.379 11.64 123.339 12.08C123.279 12.96 123.379 13.82 123.599 14.68C123.739 15.24 123.999 15.74 124.459 16.12C124.679 16.34 124.939 16.5 125.179 16.72C125.639 17.14 126.199 17.34 126.799 17.46C126.979 17.5 127.159 17.52 127.339 17.58C127.579 17.64 127.839 17.7 128.099 17.66C128.299 17.64 128.499 17.66 128.699 17.66C129.459 17.7 130.219 17.62 130.979 17.46C131.859 17.28 132.579 16.84 133.179 16.2C133.799 15.56 134.159 14.76 134.439 13.92C134.479 13.8 134.499 13.66 134.499 13.54C134.499 12.88 134.439 12.22 134.199 11.6C133.859 10.8 133.379 10.14 132.679 9.6C132.459 9.44 132.459 9.38 132.679 9.2C132.719 9.16 132.779 9.14 132.819 9.1C133.739 8.32 134.299 7.32 134.459 6.12C134.519 5.52 134.539 4.92 134.259 4.34C134.039 3.9 133.839 3.44 133.559 3.04C133.159 2.44 132.599 2.04 132.019 1.66C131.959 1.62 131.879 1.6 131.819 1.58C130.899 1.24 129.919 0.96 129.079 0.999999C128.599 0.999999 128.399 1.08 128.059 1.06ZM142.197 1.12C141.737 1.12 141.277 1.12 140.837 1.12C139.957 1.1 139.077 1.1 138.197 1.08C137.897 1.08 137.617 1.12 137.317 1.16C136.617 1.26 136.577 1.52 136.617 2.08C136.697 2.84 136.817 3.62 136.697 4.38C136.697 4.42 136.697 4.46 136.697 4.5C136.717 4.64 136.777 4.76 136.937 4.82C137.197 4.9 137.437 4.94 137.697 4.92C138.417 4.88 139.137 4.92 139.837 4.92C140.257 4.94 140.697 4.94 141.097 4.9C141.697 4.84 142.277 4.8 142.857 4.78C142.997 4.76 143.117 4.76 143.237 4.78C143.317 4.78 143.377 4.84 143.357 4.94C143.297 5.04 143.257 5.14 143.197 5.22C142.577 6.26 141.957 7.3 141.257 8.28C140.477 9.4 139.757 10.54 139.117 11.74C138.537 12.82 137.897 13.88 137.217 14.88C136.817 15.48 136.397 16.06 136.097 16.7C136.017 16.86 135.937 17 135.937 17.18C135.917 17.34 135.997 17.44 136.137 17.5C136.377 17.6 136.617 17.58 136.857 17.56C137.437 17.5 138.017 17.48 138.597 17.5C139.057 17.5 139.517 17.5 139.977 17.52C140.297 17.54 140.517 17.42 140.697 17.12C141.497 15.68 142.337 14.26 143.117 12.82C143.697 11.74 144.277 10.66 144.917 9.62C145.697 8.36 146.457 7.08 147.217 5.8C147.357 5.58 147.497 5.36 147.617 5.14C147.837 4.76 147.977 4.34 147.957 3.9C147.937 3.6 147.977 3.3 147.977 3.02C147.997 2.52 147.997 2.02 147.997 1.52C147.977 1.3 147.917 1.24 147.697 1.22C147.597 1.2 147.517 1.2 147.417 1.2C146.857 1.18 146.277 1.12 145.717 1.14C144.537 1.14 143.377 1.1 142.197 1.1C142.197 1.1 142.197 1.1 142.197 1.12ZM150.692 9.58C150.492 9.78 150.272 10 150.132 10.26C149.772 10.96 149.492 11.7 149.452 12.5C149.372 13.84 149.712 15.16 150.552 16.22C150.892 16.66 151.312 17 151.872 17.18C152.252 17.3 152.652 17.36 153.052 17.44C153.192 17.46 153.332 17.48 153.472 17.52C153.812 17.62 154.152 17.68 154.492 17.66C154.652 17.64 154.792 17.64 154.932 17.64C155.792 17.7 156.612 17.62 157.432 17.4C157.932 17.28 158.412 17.08 158.812 16.76C159.432 16.3 159.932 15.66 160.252 14.96C160.312 14.8 160.412 14.66 160.472 14.52C160.632 14.16 160.772 13.8 160.792 13.42C160.812 11.9 160.292 10.62 159.112 9.64C159.032 9.56 158.932 9.5 158.852 9.42C158.792 9.36 158.792 9.26 158.872 9.2C158.952 9.12 159.052 9.06 159.132 8.98C160.292 8 160.812 6.72 160.792 5.2C160.772 5.06 160.752 4.9 160.712 4.76C160.312 3.58 159.732 2.52 158.632 1.82C158.432 1.68 158.232 1.56 158.012 1.48C157.532 1.3 157.032 1.22 156.532 1.1C156.452 1.08 156.352 1.08 156.252 1.08C155.552 1.06 154.832 1.06 154.112 1.06C153.992 1.06 153.872 1.08 153.732 1.12C153.472 1.18 153.212 1.24 152.932 1.3C152.452 1.4 151.992 1.58 151.592 1.88C151.412 2.02 151.252 2.16 151.072 2.3C150.552 2.7 150.112 3.2 149.932 3.86C149.732 4.64 149.572 5.44 149.572 6.24C149.572 7.3 149.972 8.18 150.732 8.88C150.852 8.98 150.952 9.06 151.072 9.16C150.972 9.36 150.812 9.46 150.692 9.58ZM154.692 4.54C155.192 4.42 156.072 4.72 156.432 5.42C156.792 6.1 156.432 7.38 155.392 7.66C155.292 7.68 155.172 7.68 155.072 7.72C154.172 8.04 153.552 7.28 153.412 6.64C153.372 6.46 153.372 6.28 153.352 6.2C153.372 5.24 153.812 4.74 154.692 4.54ZM153.332 12.44C153.352 12.34 153.372 12.22 153.412 12.12C153.672 11.4 154.512 10.86 155.272 10.92C155.372 10.94 155.492 10.98 155.572 11.04C156.232 11.44 156.532 12.04 156.532 12.78C156.512 13.16 156.312 13.58 156.012 13.82C155.692 14.06 155.312 14.22 154.932 14.16C153.992 14.2 153.232 13.34 153.332 12.44Z" fill="#FBA346"/>
</svg>
