<svg width="32" height="19" viewBox="0 0 32 19" fill="none" xmlns="http://www.w3.org/2000/svg">
<path d="M31.1582 0.871498C30.8931 0.603997 30.5781 0.391772 30.2314 0.24697C29.8847 0.102169 29.5131 0.0276344 29.1377 0.0276344C28.7624 0.0276344 28.3907 0.102169 28.044 0.24697C27.6973 0.391772 27.3824 0.603997 27.1173 0.871498L15.9976 12.0386L4.87783 0.842642C4.34197 0.303108 3.61519 0 2.85737 0C2.09955 0 1.37277 0.303108 0.836905 0.842642C0.301044 1.38218 0 2.11394 0 2.87696C0 3.63997 0.301044 4.37174 0.836905 4.91127L13.9914 18.156C15.1091 19.2813 16.9146 19.2813 18.0323 18.156L31.1869 4.91127C31.713 4.37063 32.0053 3.64234 31.9999 2.88544C31.9946 2.12854 31.692 1.40452 31.1582 0.871498V0.871498Z" fill="#01584A"/>
</svg>
