<svg width="32" height="19" viewBox="0 0 32 19" fill="none" xmlns="http://www.w3.org/2000/svg">
<path d="M31.1626 0.871497C30.8976 0.603996 30.5829 0.39177 30.2365 0.246969C29.8901 0.102167 29.5187 0.027633 29.1437 0.027633C28.7686 0.027633 28.3972 0.102167 28.0508 0.246969C27.7044 0.39177 27.3897 0.603996 27.1248 0.871497L16.0137 12.0386L4.87403 0.842641C4.60891 0.575491 4.29416 0.363575 3.94776 0.218995C3.60135 0.0744139 3.23008 2.81488e-09 2.85514 0C2.4802 -2.81488e-09 2.10893 0.074414 1.76253 0.218995C1.41612 0.363575 1.10138 0.575491 0.836251 0.842641C0.571126 1.10979 0.360818 1.42694 0.217334 1.77599C0.0738496 2.12504 -2.79354e-09 2.49915 0 2.87696C2.79354e-09 3.25477 0.0738496 3.62887 0.217334 3.97792C0.360818 4.32697 0.571126 4.64413 0.836251 4.91128L13.9805 18.156C15.0973 19.2813 16.9015 19.2813 18.0183 18.156L31.1626 4.91128C31.4278 4.64718 31.6385 4.33265 31.7822 3.98592C31.926 3.63919 32 3.26716 32 2.89139C32 2.51561 31.926 2.14358 31.7822 1.79685C31.6385 1.45012 31.4278 1.13559 31.1626 0.871497Z" fill="#01584A"/>
</svg>
